<svg width="37" height="37" viewBox="0 0 37 37" fill="none" xmlns="http://www.w3.org/2000/svg">
<path fill-rule="evenodd" clip-rule="evenodd" d="M29.9779 3.99118C26.3027 1.08371 21.661 -0.320658 16.9904 0.0617284C12.3198 0.444115 7.9684 2.58476 4.81501 6.0513C1.66163 9.51784 -0.0586878 14.0519 0.00153029 18.7378C0.0617484 23.4236 1.89801 27.912 5.13944 31.2963C5.52145 31.6952 6.15447 31.7089 6.55332 31.3268C6.95218 30.9448 6.96584 30.3118 6.58383 29.913C3.69282 26.8945 2.05507 22.8913 2.00137 18.7121C1.94766 14.5328 3.48199 10.4889 6.29447 7.39711C9.10695 4.30533 12.988 2.39611 17.1536 2.05506C21.3193 1.71401 25.4592 2.96656 28.7371 5.55971C32.015 8.15286 34.1867 11.8934 34.8134 16.0257C35.4402 20.158 34.4754 24.3743 32.1138 27.8228C29.7523 31.2713 26.17 33.6951 22.0906 34.6046C18.0111 35.5142 13.7385 34.8416 10.1357 32.7229C9.65968 32.4429 9.0468 32.6019 8.76683 33.0779C8.48687 33.554 8.64583 34.1669 9.1219 34.4469C13.1614 36.8224 17.9519 37.5765 22.5258 36.5567C27.0997 35.5369 31.1162 32.8193 33.764 28.9528C36.4118 25.0863 37.4936 20.359 36.7908 15.7258C36.0881 11.0926 33.6532 6.89866 29.9779 3.99118ZM26.7031 18.1133H19.4609V10.625H17.0527V18.1133H9.81055V20.5039H17.0527V27.9571H19.4609V20.5039H26.7031V18.1133Z" fill="#A6AFB5"/>
</svg>
