<svg width="20" height="25" viewBox="0 0 20 25" fill="none" xmlns="http://www.w3.org/2000/svg">
<path d="M15.324 11.6173C14.9818 12.0267 14.5972 12.4047 14.1556 12.7459C16.6764 14.1196 18.3783 16.7021 18.3783 19.6553C18.3783 21.251 14.6981 22.501 9.99994 22.501C5.30183 22.501 1.6216 21.251 1.6216 19.6553C1.6216 16.7021 3.32344 14.1196 5.84427 12.7459C5.4027 12.4047 5.01819 12.0268 4.67588 11.6173C1.86864 13.3014 0 16.2748 0 19.6553C0 20.6793 0.590238 22.1065 3.4023 23.0901C5.15638 23.7036 7.49947 24.0415 10 24.0415C12.5005 24.0415 14.8436 23.7036 16.5977 23.0901C19.4097 22.1065 20 20.6793 20 19.6553C19.9999 16.2748 18.1312 13.3014 15.324 11.6173Z" fill="#A6AFB5"/>
<path d="M9.99988 12.6324C13.1514 12.6324 15.5783 9.73838 15.5783 6.31623C15.5783 2.8925 13.1502 0 9.99988 0C6.84834 0 4.42151 2.89403 4.42151 6.31618C4.42151 9.73991 6.84962 12.6324 9.99988 12.6324ZM9.99988 1.54052C12.1816 1.54052 13.9567 3.68286 13.9567 6.31618C13.9567 8.94949 12.1816 11.0918 9.99988 11.0918C7.81815 11.0918 6.04311 8.94949 6.04311 6.31618C6.04311 3.68286 7.81815 1.54052 9.99988 1.54052Z" fill="#A6AFB5"/>
</svg>
