<svg width="27" height="27" viewBox="0 0 27 27" fill="none" xmlns="http://www.w3.org/2000/svg">
<path d="M19.4502 1.61065C17.4307 1.61065 15.5279 2.40067 14.0981 3.83051L13.5083 4.42025L12.9075 3.81938C11.4776 2.38954 9.5749 1.59952 7.55533 1.59952C5.54132 1.59952 3.64414 2.38398 2.2143 3.81382C0.784463 5.24366 0 7.14083 0 9.16041C0 11.18 0.790027 13.0772 2.21986 14.507L12.8185 25.1056L12.8407 25.1279C13.0243 25.3115 13.2691 25.4005 13.5083 25.4005C13.7531 25.4005 13.9979 25.3059 14.1815 25.1223L24.7801 14.5237C26.21 13.0939 27 11.1967 27 9.1771C27 7.15752 26.2155 5.25478 24.7857 3.83051C23.3614 2.39511 21.4643 1.61065 19.4502 1.61065ZM23.4338 13.1717L13.5139 23.0971L3.57181 13.1551C2.50361 12.0868 1.91387 10.6681 1.9083 9.15485C1.9083 7.64712 2.49248 6.22841 3.56068 5.1602C4.62889 4.09756 6.0476 3.50782 7.54976 3.50782C9.06305 3.50782 10.4818 4.09756 11.5555 5.17133L12.8296 6.44539C13.1857 6.80146 13.8199 6.80146 14.1815 6.44539L15.45 5.17689C16.5182 4.10869 17.9425 3.51895 19.4502 3.51895C20.958 3.51895 22.3767 4.10869 23.4449 5.17689C24.5131 6.2451 25.1028 7.66381 25.0973 9.1771C25.0973 10.6848 24.5075 12.1035 23.4338 13.1717Z" fill="white"/>
</svg>
