<svg width="26" height="26" viewBox="0 0 26 26" fill="none" xmlns="http://www.w3.org/2000/svg">
<path d="M13 20.5028C16.0721 20.5028 18.5714 18.0034 18.5714 14.9313C18.5714 11.8593 16.0721 9.35998 13 9.35998C9.92786 9.35998 7.42857 11.8592 7.42857 14.9313C7.42857 18.0034 9.92786 20.5028 13 20.5028ZM13 10.9518C15.1944 10.9518 16.9796 12.737 16.9796 14.9313C16.9796 17.1257 15.1944 18.911 13 18.911C10.8056 18.911 9.02041 17.1256 9.02041 14.9313C9.02041 12.737 10.8056 10.9518 13 10.9518ZM7.88702 4.5H1.86468V6.64314H0V23.2198H26V6.64314H7.88702V4.5ZM3.45651 6.09184H6.29518V6.52758H3.45651V6.09184ZM24.4082 8.23498V21.628H1.59184V8.23498H24.4082ZM22.8295 10.938H19.1904V9.34619H22.8295V10.938Z" fill="white"/>
</svg>
