<svg width="27" height="27" viewBox="0 0 27 27" fill="none" xmlns="http://www.w3.org/2000/svg">
<path d="M25.1518 22.0701C22.2825 20.7743 22.1734 15.2124 22.1712 15.072V11.3406C22.1712 7.74936 19.9767 4.66126 16.8583 3.34637C16.8516 1.5 15.3478 0 13.5 0C11.6523 0 10.1485 1.50009 10.1418 3.34628C7.02343 4.66117 4.82888 7.74928 4.82888 11.3405V15.0719C4.82685 15.2123 4.71761 20.7742 1.84824 22.07C1.52137 22.2176 1.34172 22.5734 1.4173 22.9241C1.49278 23.2748 1.80289 23.5252 2.16161 23.5252H9.43574C9.58486 24.3456 9.97274 25.1087 10.566 25.7269C11.3539 26.5478 12.3959 26.9999 13.4999 26.9999C14.604 26.9999 15.646 26.5478 16.4338 25.7269C17.0272 25.1087 17.415 24.3455 17.5641 23.5252H24.8382C25.1969 23.5252 25.507 23.2748 25.5826 22.9241C25.6582 22.5734 25.4787 22.2177 25.1518 22.0701ZM21.3721 19.4056C21.6737 20.32 22.1008 21.2384 22.7065 22.0026H4.29351C4.89907 21.2385 5.32617 20.3202 5.62781 19.4056H21.3721ZM13.5 1.52272C14.3358 1.52272 15.0425 2.08434 15.2636 2.84987C14.694 2.73172 14.1041 2.66943 13.5 2.66943C12.8959 2.66943 12.3061 2.73168 11.7364 2.84987C11.9576 2.08439 12.6643 1.52272 13.5 1.52272ZM6.3516 15.0766V11.3405C6.3516 7.39889 9.55834 4.19215 13.5 4.19215C17.4417 4.19215 20.6485 7.39889 20.6485 11.3405V15.0828C20.6495 15.1974 20.6673 16.401 20.9707 17.8828H6.02923C6.33276 16.3996 6.35067 15.1938 6.3516 15.0766ZM13.5 25.4773C12.3379 25.4773 11.3237 24.6394 10.9982 23.5253H16.0018C15.6763 24.6394 14.6622 25.4773 13.5 25.4773Z" fill="white"/>
<path d="M13.5 5.26038C10.2243 5.26038 7.55927 7.92531 7.55927 11.201C7.55927 11.6215 7.90016 11.9624 8.32065 11.9624C8.74114 11.9624 9.08203 11.6215 9.08203 11.201C9.08203 8.76496 11.0639 6.7831 13.5001 6.7831C13.9206 6.7831 14.2615 6.4422 14.2615 6.02172C14.2614 5.60119 13.9205 5.26038 13.5 5.26038Z" fill="white"/>
</svg>
