<svg width="25" height="25" viewBox="0 0 25 25" fill="none" xmlns="http://www.w3.org/2000/svg">
<g clip-path="url(#clip0_1_427)">
<path d="M21.5274 10.5454C21.1896 10.9987 20.8028 11.4001 20.3787 11.7382C22.1751 12.8841 23.369 14.8946 23.369 17.1788C23.369 17.9202 22.2811 18.4314 21.6327 18.6702C21.1271 18.8564 20.5326 19.0088 19.8828 19.124C19.9038 19.3985 19.9146 19.6759 19.9146 19.9557C19.9146 20.1979 19.8935 20.4802 19.8321 20.7875C20.7054 20.6517 21.5073 20.4543 22.1963 20.2007C24.5136 19.3475 25 18.0864 25 17.1788C24.9999 14.4347 23.6246 12.0063 21.5274 10.5454Z" fill="white"/>
<path d="M16.9205 0.823456C15.902 0.823456 14.941 1.22771 14.1629 1.97298C14.4691 2.36505 14.7366 2.78866 14.9638 3.23672C15.4853 2.64198 16.1705 2.27981 16.9205 2.27981C18.5489 2.27981 19.8738 3.98423 19.8738 6.07919C19.8738 8.17416 18.5489 9.87858 16.9205 9.87858C16.4306 9.87858 15.9687 9.72348 15.5616 9.45084C15.4294 9.93267 15.2557 10.3979 15.0435 10.8407C15.6221 11.1642 16.2591 11.335 16.9205 11.335C19.412 11.335 21.3302 8.92667 21.3302 6.07919C21.3302 3.23145 19.4117 0.823456 16.9205 0.823456Z" fill="white"/>
<path d="M14.1346 12.3015C13.7819 12.7475 13.4069 13.1218 13.0163 13.4373C15.2365 14.7619 16.727 17.1879 16.727 19.9557C16.727 20.8905 15.4166 21.5126 14.6355 21.8002C13.2207 22.3212 11.2184 22.6199 9.14189 22.6199C7.0654 22.6199 5.06302 22.3212 3.6482 21.8002C2.8671 21.5126 1.55671 20.8906 1.55671 19.9557C1.55671 17.1878 3.04721 14.7619 5.26743 13.4373C4.87688 13.1218 4.50182 12.7475 4.14916 12.3015C1.65283 13.9354 0 16.756 0 19.9558C0 20.9412 0.539616 22.3146 3.11032 23.2611C4.71384 23.8515 6.85589 24.1766 9.14183 24.1766C11.4278 24.1766 13.5698 23.8515 15.1733 23.2611C17.7441 22.3146 18.2837 20.9412 18.2837 19.9558C18.2837 16.756 16.6309 13.9354 14.1346 12.3015Z" fill="white"/>
<path d="M9.14184 13.1976C12.0233 13.1976 14.2415 10.4123 14.2415 7.11951C14.2415 3.82664 12.023 1.04141 9.14184 1.04141C6.26082 1.04141 4.04218 3.82609 4.04218 7.11951C4.04218 10.413 6.26104 13.1976 9.14184 13.1976ZM9.14184 2.59807C11.0955 2.59807 12.6848 4.62638 12.6848 7.11946C12.6848 9.61253 11.0954 11.6409 9.14184 11.6409C7.18827 11.6409 5.59889 9.61253 5.59889 7.11946C5.59889 4.62638 7.18827 2.59807 9.14184 2.59807Z" fill="white"/>
</g>
<defs>
<clipPath id="clip0_1_427">
<rect width="25" height="25" fill="white"/>
</clipPath>
</defs>
</svg>
