<svg width="23" height="22" viewBox="0 0 23 22" fill="none" xmlns="http://www.w3.org/2000/svg">
<path d="M6.57861 15.0396L9.75193 9.79933C10.8768 10.2152 12.1225 10.2154 13.2481 9.79933L16.4214 15.0396C14.055 17.467 15.7914 21.5484 19.1656 21.5484C21.2799 21.5485 23 19.8284 23 17.714C23 15.1587 20.528 13.3026 18.066 14.0411L14.8925 8.80063C15.9135 7.87501 16.5557 6.53895 16.5557 5.05563C16.5557 2.26797 14.2877 -3.80825e-07 11.5 -5.0268e-07C8.71231 -6.24535e-07 6.44439 2.26792 6.44439 5.05563C6.44439 6.53895 7.08664 7.87501 8.10748 8.80063L4.93403 14.0411C2.4755 13.3037 -6.62448e-07 15.155 -7.74304e-07 17.714C-8.66724e-07 19.8283 1.7201 21.5485 3.83443 21.5485C7.21381 21.5485 8.94217 17.4643 6.57861 15.0396ZM21.076 17.714C21.076 18.7675 20.219 19.6245 19.1656 19.6245C18.1122 19.6245 17.2551 18.7675 17.2551 17.714C17.2551 16.6605 18.1121 15.8036 19.1656 15.8036C20.219 15.8036 21.076 16.6606 21.076 17.714ZM8.36843 5.05554C8.36843 3.32879 9.77327 1.92391 11.5001 1.92391C13.2269 1.92391 14.6317 3.32875 14.6317 5.05554C14.6317 6.78238 13.2269 8.18713 11.5001 8.18713C9.77327 8.18713 8.36843 6.78238 8.36843 5.05554ZM1.924 17.714C1.924 16.6605 2.78102 15.8036 3.83443 15.8036C4.88789 15.8036 5.74496 16.6606 5.74496 17.714C5.74496 18.7675 4.88794 19.6245 3.83443 19.6245C2.78106 19.6245 1.924 18.7675 1.924 17.714Z" fill="#A6AFB5"/>
</svg>
