<svg width="200" height="200" viewBox="0 0 200 200" fill="none" xmlns="http://www.w3.org/2000/svg">
<path d="M100 10C117.8 10 135.201 15.2784 150.001 25.1677C164.802 35.0571 176.337 49.1131 183.149 65.5585C189.961 82.0038 191.743 100.1 188.271 117.558C184.798 135.016 176.226 151.053 163.64 163.64C151.053 176.226 135.016 184.798 117.558 188.271C100.1 191.743 82.0038 189.961 65.5585 183.149C49.1131 176.337 35.0571 164.802 25.1677 150.001C15.2784 135.201 10 117.8 10 100" stroke="url(#paint0_linear_15_2)" stroke-width="20" stroke-linecap="round"/>
<path d="M65.6641 116L77.3828 90.4141H61.8164V87.4453H80.8594V89.9453L69.2188 116H65.6641ZM93.8867 98.5391C95.8268 98.5391 97.513 98.8711 98.9453 99.5352C100.378 100.186 101.484 101.137 102.266 102.387C103.06 103.637 103.457 105.154 103.457 106.938C103.457 108.891 103.034 110.577 102.188 111.996C101.341 113.402 100.124 114.49 98.5352 115.258C96.9466 116.013 95.0456 116.391 92.832 116.391C91.3477 116.391 89.9674 116.26 88.6914 116C87.4154 115.74 86.3411 115.349 85.4688 114.828V111.742C86.4193 112.315 87.5716 112.771 88.9258 113.109C90.2799 113.448 91.5951 113.617 92.8711 113.617C94.3164 113.617 95.5794 113.389 96.6602 112.934C97.7539 112.465 98.6003 111.762 99.1992 110.824C99.8112 109.874 100.117 108.682 100.117 107.25C100.117 105.349 99.5312 103.884 98.3594 102.855C97.2005 101.814 95.3646 101.293 92.8516 101.293C92.0443 101.293 91.1589 101.358 90.1953 101.488C89.2318 101.618 88.4375 101.762 87.8125 101.918L86.1719 100.844L87.2656 87.4453H101.465V90.4141H90.0391L89.3164 99.0273C89.8112 98.9232 90.4492 98.819 91.2305 98.7148C92.0117 98.5977 92.8971 98.5391 93.8867 98.5391ZM113.574 87.0352C115.527 87.0352 117.005 87.8164 118.008 89.3789C119.023 90.9284 119.531 93.1224 119.531 95.9609C119.531 98.7995 119.043 101.013 118.066 102.602C117.09 104.177 115.592 104.965 113.574 104.965C111.699 104.965 110.26 104.177 109.258 102.602C108.268 101.013 107.773 98.7995 107.773 95.9609C107.773 93.1224 108.249 90.9284 109.199 89.3789C110.15 87.8164 111.608 87.0352 113.574 87.0352ZM113.574 89.3594C112.52 89.3594 111.745 89.9128 111.25 91.0195C110.755 92.1133 110.508 93.7604 110.508 95.9609C110.508 98.1615 110.755 99.8216 111.25 100.941C111.745 102.061 112.52 102.621 113.574 102.621C114.668 102.621 115.482 102.061 116.016 100.941C116.549 99.8216 116.816 98.1615 116.816 95.9609C116.816 93.7734 116.549 92.1263 116.016 91.0195C115.495 89.9128 114.681 89.3594 113.574 89.3594ZM131.66 87.4453L115.82 116H112.969L128.809 87.4453H131.66ZM130.898 98.4805C132.839 98.4805 134.316 99.2617 135.332 100.824C136.348 102.374 136.855 104.568 136.855 107.406C136.855 110.232 136.367 112.439 135.391 114.027C134.414 115.603 132.917 116.391 130.898 116.391C129.01 116.391 127.572 115.603 126.582 114.027C125.592 112.439 125.098 110.232 125.098 107.406C125.098 104.568 125.566 102.374 126.504 100.824C127.454 99.2617 128.919 98.4805 130.898 98.4805ZM130.898 100.824C129.844 100.824 129.069 101.371 128.574 102.465C128.079 103.559 127.832 105.206 127.832 107.406C127.832 109.607 128.079 111.267 128.574 112.387C129.069 113.493 129.844 114.047 130.898 114.047C131.992 114.047 132.806 113.5 133.34 112.406C133.874 111.299 134.141 109.633 134.141 107.406C134.141 105.219 133.874 103.578 133.34 102.484C132.819 101.378 132.005 100.824 130.898 100.824Z" fill="#F8484C"/>
<defs>
<linearGradient id="paint0_linear_15_2" x1="27.7202" y1="158.29" x2="190" y2="83.2124" gradientUnits="userSpaceOnUse">
<stop stop-color="#F83A30"/>
<stop offset="0.774352" stop-color="#F8771E"/>
<stop offset="0.961458" stop-color="#FFCB00"/>
</linearGradient>
</defs>
</svg>
