<svg width="55" height="44" viewBox="0 0 55 44" fill="none" xmlns="http://www.w3.org/2000/svg">
<path d="M24.75 41.25H30.25V35.75H24.75V41.25ZM22 41.25V35.75H6.875C3.07804 35.75 0 32.672 0 28.875V6.875C0 3.07804 3.07804 0 6.875 0H48.125C51.922 0 55 3.07804 55 6.875V28.875C55 32.672 51.922 35.75 48.125 35.75H33V41.25H37.125C37.8844 41.25 38.5 41.8656 38.5 42.625C38.5 43.3844 37.8844 44 37.125 44H17.875C17.1156 44 16.5 43.3844 16.5 42.625C16.5 41.8656 17.1156 41.25 17.875 41.25H22ZM6.875 2.75C4.59683 2.75 2.75 4.59683 2.75 6.875V28.875C2.75 31.1532 4.59683 33 6.875 33H48.125C50.4032 33 52.25 31.1532 52.25 28.875V6.875C52.25 4.59683 50.4032 2.75 48.125 2.75H6.875Z" fill="white"/>
</svg>
