<svg width="44" height="44" viewBox="0 0 44 44" fill="none" xmlns="http://www.w3.org/2000/svg">
<g clip-path="url(#clip0_6_1106)">
<path d="M30.25 2.75C30.9793 2.75 31.6788 3.03973 32.1945 3.55546C32.7103 4.07118 33 4.77065 33 5.5V38.5C33 39.2293 32.7103 39.9288 32.1945 40.4445C31.6788 40.9603 30.9793 41.25 30.25 41.25H13.75C13.0207 41.25 12.3212 40.9603 11.8055 40.4445C11.2897 39.9288 11 39.2293 11 38.5V5.5C11 4.77065 11.2897 4.07118 11.8055 3.55546C12.3212 3.03973 13.0207 2.75 13.75 2.75H30.25ZM13.75 0C12.2913 0 10.8924 0.579463 9.86091 1.61091C8.82946 2.64236 8.25 4.04131 8.25 5.5V38.5C8.25 39.9587 8.82946 41.3576 9.86091 42.3891C10.8924 43.4205 12.2913 44 13.75 44H30.25C31.7087 44 33.1076 43.4205 34.1391 42.3891C35.1705 41.3576 35.75 39.9587 35.75 38.5V5.5C35.75 4.04131 35.1705 2.64236 34.1391 1.61091C33.1076 0.579463 31.7087 0 30.25 0L13.75 0Z" fill="white"/>
<path d="M22 38.5C22.7293 38.5 23.4288 38.2103 23.9445 37.6945C24.4603 37.1788 24.75 36.4793 24.75 35.75C24.75 35.0207 24.4603 34.3212 23.9445 33.8055C23.4288 33.2897 22.7293 33 22 33C21.2707 33 20.5712 33.2897 20.0555 33.8055C19.5397 34.3212 19.25 35.0207 19.25 35.75C19.25 36.4793 19.5397 37.1788 20.0555 37.6945C20.5712 38.2103 21.2707 38.5 22 38.5Z" fill="white"/>
</g>
<defs>
<clipPath id="clip0_6_1106">
<rect width="44" height="44" fill="white"/>
</clipPath>
</defs>
</svg>
