<svg width="28" height="19" viewBox="0 0 28 19" fill="none" xmlns="http://www.w3.org/2000/svg">
<path d="M13.6865 15.4758L12.7697 16.3654V9.75248C12.7697 9.33732 12.4263 9 12 9C11.5737 9 11.2303 9.33732 11.2303 9.75248V16.3617L10.3135 15.4721C10.0116 15.1792 9.52492 15.1792 9.22308 15.4758C8.92501 15.7723 8.92501 16.2468 9.22685 16.5433L11.4567 18.7081C11.8491 19.0936 12.1434 19.101 12.5433 18.7081L14.7731 16.5433C15.075 16.2505 15.075 15.7723 14.7769 15.4758C14.4751 15.1829 13.9884 15.1792 13.6865 15.4758Z" fill="#F8771E"/>
<path d="M25.8168 7.72578C25.426 4.60488 22.4014 2.23164 18.6801 2.23164C17.9098 2.23164 17.1564 2.33359 16.4314 2.54316C15.0947 0.957227 12.948 0 10.6145 0C6.64961 0 3.42676 2.76973 3.42676 6.16816C3.42676 6.33242 3.43809 6.50234 3.44941 6.67227C1.32539 7.77676 0 9.76484 0 11.9398C0 15.3439 3.22285 18.108 7.1877 18.108C7.82773 18.108 8.34316 17.5926 8.34316 16.9582C8.34316 16.3238 7.82773 15.8084 7.1877 15.8084C4.50293 15.8084 2.3166 14.0752 2.3166 11.9398C2.3166 10.4445 3.43242 9.0625 5.15996 8.43379C5.73203 8.22422 6.03789 7.6125 5.87363 7.0291C5.78867 6.72891 5.74336 6.4457 5.74336 6.16816C5.74336 4.03848 7.92969 2.30527 10.6145 2.30527C12.4723 2.30527 14.1941 3.17188 15.0041 4.51426C15.2986 5.00137 15.9104 5.19961 16.4371 4.98438C17.1395 4.68984 17.8928 4.54258 18.6744 4.54258C21.3025 4.54258 23.4889 6.2418 23.5398 8.32617C23.5512 8.66602 23.7098 8.98887 23.9816 9.19844C24.9219 9.93477 25.443 10.909 25.443 11.9398C25.443 14.0695 23.2566 15.8084 20.5719 15.8084C19.6939 15.8084 18.8217 15.6158 18.0627 15.2477C17.4906 14.9701 16.7939 15.208 16.5164 15.7801C16.2389 16.3521 16.4768 17.0432 17.0545 17.3207C18.1307 17.8418 19.3484 18.1137 20.5719 18.1137C24.5367 18.1137 27.7596 15.3439 27.7596 11.9455C27.7596 10.3766 27.0572 8.86426 25.8168 7.72578Z" fill="#F8771E"/>
</svg>
