<svg width="55" height="55" viewBox="0 0 55 55" fill="none" xmlns="http://www.w3.org/2000/svg">
<path d="M54.1091 41.339H53.0994V11.8195C53.0994 9.75627 51.4207 8.07764 49.3575 8.07764H5.64255C3.57928 8.07764 1.90065 9.75627 1.90065 11.8195V41.339H0.890929C0.398898 41.339 0 41.7379 0 42.2299V44.1306C0 45.6698 1.25229 46.9221 2.79158 46.9221H52.2084C53.7477 46.9221 55 45.6698 55 44.1306V42.2299C55 41.7379 54.6011 41.339 54.1091 41.339ZM3.68251 11.8195C3.68251 10.7388 4.56179 9.85949 5.64255 9.85949H49.3575C50.4382 9.85949 51.3175 10.7388 51.3175 11.8195V41.339H3.68251V11.8195ZM53.2181 44.1306C53.2181 44.6873 52.7652 45.1403 52.2084 45.1403H2.79158C2.23481 45.1403 1.78186 44.6873 1.78186 44.1306V43.1208H21.8604C21.8591 43.1406 21.8575 43.1602 21.8575 43.1802C21.8575 43.6723 22.2563 44.0712 22.7484 44.0712H32.2516C32.7437 44.0712 33.1425 43.6723 33.1425 43.1802C33.1425 43.1602 33.1409 43.1406 33.1396 43.1208H53.2181V44.1306Z" fill="white"/>
<path d="M48.4071 11.8789H6.59286C6.10083 11.8789 5.70193 12.2778 5.70193 12.7698V38.4286C5.70193 38.9206 6.10083 39.3195 6.59286 39.3195H48.4071C48.8992 39.3195 49.298 38.9206 49.298 38.4286V12.7698C49.298 12.2778 48.8992 11.8789 48.4071 11.8789ZM47.5162 37.5377H7.48379V13.6608H47.5162V37.5377Z" fill="white"/>
</svg>
