<svg width="35" height="35" viewBox="0 0 35 35" fill="none" xmlns="http://www.w3.org/2000/svg">
<g clip-path="url(#clip0_3_613)">
<path d="M35 5.2382V7.61998H30.2364V12.3811H27.8546V7.61998H23.0923V5.2382H27.8546V0.474627H30.2364V5.2382H35ZM19.959 2.4201H17.2497C19.163 3.5152 20.1778 5.76968 20.1778 8.25653C20.1778 10.5394 18.9158 12.3774 17.1286 13.7741C15.3858 15.1361 15.0546 15.7059 15.0546 16.8641C15.0546 17.8516 17.1385 19.325 18.0951 20.0431C21.4262 22.5423 22.1035 24.1157 22.1035 27.2428C22.1035 31.1437 17.8974 35.0235 11.0598 35.0235C5.06021 35.0235 0 32.5824 0 28.6815C0 24.7201 4.19748 20.5943 10.1971 20.5943C10.8509 20.5943 11.4504 20.5746 12.0696 20.5746C11.2489 19.7761 10.5876 19.0901 10.5876 17.8838C10.5876 17.1669 10.8151 16.4834 11.1339 15.8703C10.8089 15.8938 10.4764 15.9136 10.1328 15.9136C5.20606 15.9136 2.33482 12.4528 2.33482 8.11068C2.33358 3.86252 6.70163 0 11.9386 0C14.6393 0 22.2617 0 22.2617 0L19.959 2.4201ZM14.2413 22.2432C13.4267 21.9774 12.522 21.8205 11.5567 21.8106C7.41109 21.7648 3.89837 24.4297 3.89837 27.5197C3.89837 30.6727 6.89321 33.2943 11.0363 33.2943C16.8665 33.2943 18.8973 30.8322 18.8973 27.6791C18.8973 27.296 18.8491 26.9289 18.7663 26.5692C18.3065 24.7856 16.4957 23.808 14.2413 22.2432ZM16.0298 8.41226C15.5514 4.75863 13.1721 1.76131 10.3899 1.67603C7.60886 1.59445 5.73878 4.3903 6.22453 8.04393C6.7041 11.6976 9.34545 14.2499 12.1289 14.3352C14.9075 14.4168 16.5069 12.0659 16.0298 8.41226Z" fill="white"/>
</g>
<defs>
<clipPath id="clip0_3_613">
<rect width="35" height="35" fill="white"/>
</clipPath>
</defs>
</svg>
