<svg width="26" height="23" viewBox="0 0 26 23" fill="none" xmlns="http://www.w3.org/2000/svg">
<path d="M24.3781 7.74844C23.7412 6.24097 22.8179 4.8714 21.6594 3.71562C20.5036 2.55707 19.134 1.63375 17.6266 0.996875C16.0604 0.33418 14.4009 0 12.6875 0C10.9741 0 9.31455 0.33418 7.74844 0.996875C6.24097 1.63375 4.8714 2.55707 3.71562 3.71562C2.55707 4.8714 1.63375 6.24097 0.996875 7.74844C0.33418 9.31455 0 10.9741 0 12.6875C0 16.4456 1.65107 19.9856 4.52842 22.4042L4.57656 22.4438C4.74082 22.5798 4.94756 22.6562 5.15996 22.6562H20.2179C20.4303 22.6562 20.637 22.5798 20.8013 22.4438L20.8494 22.4042C23.7239 19.9856 25.375 16.4456 25.375 12.6875C25.375 10.9741 25.038 9.31455 24.3781 7.74844ZM19.7506 20.5039H5.62441C4.53011 19.5172 3.6555 18.3114 3.05734 16.9649C2.45918 15.6183 2.15085 14.161 2.15234 12.6875C2.15234 9.87246 3.24834 7.22734 5.23926 5.23926C7.23018 3.24834 9.87529 2.15234 12.6875 2.15234C15.5025 2.15234 18.1477 3.24834 20.1357 5.23926C22.1267 7.23018 23.2227 9.87529 23.2227 12.6875C23.2227 15.6781 21.9624 18.5073 19.7506 20.5039ZM15.8452 8.76514C15.8026 8.72297 15.7451 8.69932 15.6852 8.69932C15.6253 8.69932 15.5678 8.72297 15.5252 8.76514L13.1321 11.1582C12.6025 11.0166 12.0163 11.1525 11.6 11.5688C11.4525 11.716 11.3356 11.8908 11.2557 12.0833C11.1759 12.2757 11.1348 12.482 11.1348 12.6903C11.1348 12.8987 11.1759 13.105 11.2557 13.2974C11.3356 13.4898 11.4525 13.6646 11.6 13.8118C11.7472 13.9593 11.922 14.0763 12.1144 14.1561C12.3069 14.2359 12.5132 14.277 12.7215 14.277C12.9298 14.277 13.1361 14.2359 13.3285 14.1561C13.521 14.0763 13.6958 13.9593 13.843 13.8118C14.0402 13.6152 14.182 13.3699 14.2541 13.1009C14.3263 12.8319 14.3261 12.5486 14.2536 12.2797L16.6467 9.88662C16.7345 9.79883 16.7345 9.65439 16.6467 9.5666L15.8452 8.76514ZM12.0645 5.89062H13.3105C13.4352 5.89062 13.5371 5.78867 13.5371 5.66406V3.39844C13.5371 3.27383 13.4352 3.17188 13.3105 3.17188H12.0645C11.9398 3.17188 11.8379 3.27383 11.8379 3.39844V5.66406C11.8379 5.78867 11.9398 5.89062 12.0645 5.89062ZM19.4277 12.0645V13.3105C19.4277 13.4352 19.5297 13.5371 19.6543 13.5371H21.9199C22.0445 13.5371 22.1465 13.4352 22.1465 13.3105V12.0645C22.1465 11.9398 22.0445 11.8379 21.9199 11.8379H19.6543C19.5297 11.8379 19.4277 11.9398 19.4277 12.0645ZM19.7874 6.47969L18.9066 5.59893C18.8641 5.55676 18.8066 5.53311 18.7466 5.53311C18.6867 5.53311 18.6292 5.55676 18.5866 5.59893L16.9837 7.20186C16.9415 7.24444 16.9179 7.30194 16.9179 7.36187C16.9179 7.42179 16.9415 7.47929 16.9837 7.52188L17.8645 8.40264C17.9522 8.49043 18.0967 8.49043 18.1845 8.40264L19.7874 6.79971C19.8752 6.71191 19.8752 6.56748 19.7874 6.47969ZM6.79971 5.59893C6.75713 5.55676 6.69962 5.53311 6.6397 5.53311C6.57977 5.53311 6.52227 5.55676 6.47969 5.59893L5.59893 6.47969C5.55676 6.52227 5.53311 6.57977 5.53311 6.6397C5.53311 6.69962 5.55676 6.75713 5.59893 6.79971L7.20186 8.40264C7.28965 8.49043 7.43408 8.49043 7.52188 8.40264L8.40264 7.52188C8.49043 7.43408 8.49043 7.28965 8.40264 7.20186L6.79971 5.59893ZM5.60742 11.8379H3.3418C3.21719 11.8379 3.11523 11.9398 3.11523 12.0645V13.3105C3.11523 13.4352 3.21719 13.5371 3.3418 13.5371H5.60742C5.73203 13.5371 5.83398 13.4352 5.83398 13.3105V12.0645C5.83398 11.9398 5.73203 11.8379 5.60742 11.8379Z" fill="#F8771E"/>
</svg>
