<svg width="29" height="29" viewBox="0 0 29 29" fill="none" xmlns="http://www.w3.org/2000/svg">
<path d="M1 13.9904C1 10.4033 2.45377 7.15569 4.80445 4.80501C7.15513 2.45433 10.4027 1 13.9898 1C17.5763 1 20.8228 2.45321 23.1735 4.80277C25.5253 7.15345 26.9802 10.4022 26.9802 13.9898C26.9802 16.68 26.1622 19.1791 24.7617 21.2525C24.295 21.9438 27.7247 26.5488 27.137 27.1365C26.5219 27.7516 21.8838 24.3443 21.1556 24.8267C19.1018 26.1875 16.6385 26.9802 13.9898 26.9802C6.81563 26.9807 1 21.1651 1 13.9904Z" stroke="#F8771E" stroke-width="2" stroke-miterlimit="10" stroke-linecap="round" stroke-linejoin="round"/>
<path d="M19.3511 9.46323H8.64868" stroke="#F8771E" stroke-width="2" stroke-miterlimit="10" stroke-linecap="round" stroke-linejoin="round"/>
<path d="M15.689 13.945H8.64868" stroke="#F8771E" stroke-width="2" stroke-miterlimit="10" stroke-linecap="round" stroke-linejoin="round"/>
<path d="M12.1685 18.4267H8.64868" stroke="#F8771E" stroke-width="2" stroke-miterlimit="10" stroke-linecap="round" stroke-linejoin="round"/>
</svg>
