<svg width="27" height="26" viewBox="0 0 27 26" fill="none" xmlns="http://www.w3.org/2000/svg">
<path d="M13.0446 12.2199L0.752251 12.2199C0.334334 12.2199 1.85113e-07 12.5542 1.66845e-07 12.9721C1.48578e-07 13.3901 0.334334 13.7244 0.752251 13.7244L13.0446 13.7244C13.3956 15.4685 14.9391 16.7891 16.7891 16.7891C18.6391 16.7891 20.1826 15.4685 20.5336 13.7244L26.0056 13.7244C26.4235 13.7244 26.7578 13.3901 26.7578 12.9721C26.7578 12.5542 26.4235 12.2199 26.0056 12.2199L20.5336 12.2199C20.1826 10.4758 18.6391 9.15516 16.7891 9.15516C14.9447 9.15516 13.3956 10.4702 13.0446 12.2199ZM19.1016 12.9721C19.1016 14.2482 18.0652 15.2846 16.7891 15.2846C15.5131 15.2846 14.4766 14.2482 14.4766 12.9721C14.4766 11.6961 15.5131 10.6597 16.7891 10.6597C18.0652 10.6597 19.1016 11.6961 19.1016 12.9721Z" fill="#F8771E"/>
<path d="M6.73682 21.4308L0.752251 21.4308C0.334334 21.4308 1.85113e-07 21.7651 1.66845e-07 22.183C1.48578e-07 22.6009 0.334334 22.9353 0.752251 22.9353L6.73682 22.9353C7.08787 24.6794 8.63138 26 10.4814 26C12.3313 26 13.8748 24.6794 14.2259 22.9353L26.0056 22.9353C26.4235 22.9353 26.7578 22.6009 26.7578 22.183C26.7578 21.7651 26.4235 21.4308 26.0056 21.4308L14.2203 21.4308C13.8693 19.6867 12.3258 18.3661 10.4758 18.3661C8.62581 18.3661 7.08787 19.6867 6.73682 21.4308ZM12.7938 22.183C12.7938 23.4591 11.7574 24.4955 10.4814 24.4955C9.20532 24.4955 8.16888 23.4591 8.16888 22.183C8.16888 20.907 9.20532 19.8706 10.4814 19.8706C11.7574 19.8706 12.7938 20.9126 12.7938 22.183Z" fill="#F8771E"/>
<path d="M6.73682 3.06472L0.752251 3.06472C0.334334 3.06472 1.85113e-07 3.39905 1.66845e-07 3.81697C1.48578e-07 4.23488 0.334334 4.56922 0.752251 4.56922L6.73682 4.56922C7.08787 6.31332 8.63138 7.63394 10.4814 7.63394C12.3313 7.63394 13.8748 6.31332 14.2259 4.56922L26.0111 4.56922C26.4291 4.56922 26.7634 4.23489 26.7634 3.81697C26.7634 3.39905 26.4291 3.06472 26.0111 3.06472L14.2203 3.06472C13.8693 1.32061 12.3258 -6.61378e-06 10.4758 -6.69465e-06C8.62581 -6.77551e-06 7.08787 1.31504 6.73682 3.06472ZM12.7938 3.81697C12.7938 5.09301 11.7574 6.12944 10.4814 6.12944C9.20532 6.12944 8.16888 5.09301 8.16888 3.81697C8.16888 2.54093 9.20532 1.50449 10.4814 1.50449C11.7574 1.50449 12.7938 2.54093 12.7938 3.81697Z" fill="#F8771E"/>
</svg>
