<svg width="24" height="24" viewBox="0 0 24 24" fill="none" xmlns="http://www.w3.org/2000/svg">
<path d="M22.4999 2.25143H16.8749V0.375C16.8749 0.167738 16.7072 0 16.4999 0C16.2927 0 16.1249 0.167738 16.1249 0.375V2.25143H8.24994V0.375C8.24994 0.167738 8.08224 0 7.87494 0C7.66768 0 7.49994 0.167738 7.49994 0.375V2.25143H1.49975C0.671338 2.25143 -0.000249863 2.92298 -0.000249863 3.75143V22.5C-0.000249863 23.3284 0.671338 24 1.49975 24H22.4999C23.3284 24 23.9999 23.3284 23.9999 22.5V3.75143C23.9999 2.92298 23.3284 2.25143 22.4999 2.25143ZM1.49975 3.00143H7.49994V4.125C7.49994 4.33226 7.66768 4.5 7.87494 4.5C8.08224 4.5 8.24994 4.33226 8.24994 4.125V3.00143H16.1249V4.125C16.1249 4.33226 16.2927 4.5 16.4999 4.5C16.7072 4.5 16.8749 4.33226 16.8749 4.125V3.00143H22.4999C22.9135 3.00143 23.2499 3.33784 23.2499 3.75143V6.375H0.749938L0.74975 6.37504V3.75143C0.74975 3.33784 1.08624 3.00143 1.49975 3.00143ZM23.2499 22.5C23.2499 22.9135 22.9135 23.25 22.4999 23.25H1.49975C1.08624 23.25 0.74975 22.9135 0.74975 22.5V7.12496L0.749938 7.125H23.2499V22.5Z" fill="#F8771E"/>
<path d="M6.75009 9H3.75009V12H6.75009V9ZM6.00009 11.25H4.50009V9.75H6.00009V11.25Z" fill="#F8771E"/>
<path d="M13.5001 9H10.5001V12H13.5001V9ZM12.7501 11.25H11.2501V9.75H12.7501V11.25Z" fill="#F8771E"/>
<path d="M20.2501 9H17.2501V12H20.2501V9ZM19.5001 11.25H18.0001V9.75H19.5001V11.25Z" fill="#F8771E"/>
<path d="M6.75009 13.5H3.75009V16.5H6.75009V13.5ZM6.00009 15.75H4.50009V14.25H6.00009V15.75Z" fill="#F8771E"/>
<path d="M13.5001 13.5H10.5001V16.5H13.5001V13.5ZM12.7501 15.75H11.2501V14.25H12.7501V15.75Z" fill="#F8771E"/>
<path d="M6.75009 18H3.75009V21H6.75009V18ZM6.00009 20.25H4.50009V18.75H6.00009V20.25Z" fill="#F8771E"/>
<path d="M13.5001 18H10.5001V21H13.5001V18ZM12.7501 20.25H11.2501V18.75H12.7501V20.25Z" fill="#F8771E"/>
<path d="M20.2501 13.5H17.2501V16.5H20.2501V13.5ZM19.5001 15.75H18.0001V14.25H19.5001V15.75Z" fill="#F8771E"/>
<path d="M20.2501 18H17.2501V21H20.2501V18ZM19.5001 20.25H18.0001V18.75H19.5001V20.25Z" fill="#F8771E"/>
</svg>
