<svg width="280" height="142" viewBox="0 0 280 142" fill="none" xmlns="http://www.w3.org/2000/svg">
<g clip-path="url(#clip0_2_537)">
<line y1="9" x2="282" y2="9" stroke="#A6AFB5" stroke-width="2" stroke-dasharray="2 2"/>
<line y1="34" x2="282" y2="34" stroke="#A6AFB5" stroke-width="2" stroke-dasharray="2 2"/>
<line y1="59" x2="282" y2="59" stroke="#A6AFB5" stroke-width="2" stroke-dasharray="2 2"/>
<line y1="84" x2="282" y2="84" stroke="#A6AFB5" stroke-width="2" stroke-dasharray="2 2"/>
<line y1="109" x2="282" y2="109" stroke="#A6AFB5" stroke-width="2" stroke-dasharray="2 2"/>
<line y1="134" x2="282" y2="134" stroke="#A6AFB5" stroke-width="2" stroke-dasharray="2 2"/>
<path d="M3 134.5L28.5 109H53L86 84H114.5L162 59L181 32.5L209 42.5L281.5 7" stroke="url(#paint0_linear_2_537)" stroke-width="3" stroke-linecap="round"/>
<circle cx="86.5" cy="83.5" r="6" fill="white" stroke="#F8484C" stroke-width="3"/>
<circle cx="181.5" cy="34.5" r="6" fill="white" stroke="#F8484C" stroke-width="3"/>
<path d="M72 56C72 54.3431 73.3431 53 75 53H99C100.657 53 102 54.3431 102 56V65C102 66.6569 100.657 68 99 68H75C73.3431 68 72 66.6569 72 65V56Z" fill="#A6AFB5"/>
<path d="M77.1836 60.1426H79.1953V60.8066H77.1836V62.877H76.5146V60.8066H74.5029V60.1426H76.5146V58.0625H77.1836V60.1426ZM83.2334 64H82.4424V58.9414C82.4424 58.7493 82.4424 58.585 82.4424 58.4482C82.4456 58.3083 82.4489 58.1813 82.4521 58.0674C82.4587 57.9502 82.4668 57.8314 82.4766 57.7109C82.3757 57.8151 82.2812 57.9046 82.1934 57.9795C82.1055 58.0511 81.9964 58.1406 81.8662 58.248L81.0508 58.9023L80.626 58.3506L82.5596 56.8613H83.2334V64ZM90.6553 60.4209C90.6553 61.0003 90.6113 61.5179 90.5234 61.9736C90.4355 62.4294 90.2972 62.8151 90.1084 63.1309C89.9196 63.4466 89.6755 63.6875 89.376 63.8535C89.0765 64.0163 88.7168 64.0977 88.2969 64.0977C87.7663 64.0977 87.3268 63.9528 86.9785 63.6631C86.6335 63.3734 86.3747 62.9551 86.2021 62.4082C86.0329 61.8581 85.9482 61.1956 85.9482 60.4209C85.9482 59.6592 86.0247 59.0049 86.1777 58.458C86.334 57.9079 86.5846 57.4863 86.9297 57.1934C87.2747 56.8971 87.7305 56.749 88.2969 56.749C88.834 56.749 89.2767 56.8955 89.625 57.1885C89.9733 57.4782 90.2321 57.8981 90.4014 58.4482C90.5706 58.9951 90.6553 59.6527 90.6553 60.4209ZM86.7637 60.4209C86.7637 61.085 86.8141 61.6383 86.915 62.0811C87.016 62.5238 87.1787 62.8558 87.4033 63.0771C87.6312 63.2952 87.929 63.4043 88.2969 63.4043C88.6647 63.4043 88.9609 63.2952 89.1855 63.0771C89.4134 62.859 89.5778 62.5286 89.6787 62.0859C89.7829 61.6432 89.835 61.0882 89.835 60.4209C89.835 59.7666 89.7845 59.2197 89.6836 58.7803C89.5827 58.3376 89.4199 58.0055 89.1953 57.7842C88.9707 57.5596 88.6712 57.4473 88.2969 57.4473C87.9225 57.4473 87.623 57.5596 87.3984 57.7842C87.1738 58.0055 87.0111 58.3376 86.9102 58.7803C86.8125 59.2197 86.7637 59.7666 86.7637 60.4209ZM93.1162 56.7588C93.6045 56.7588 93.974 56.9541 94.2246 57.3447C94.4785 57.7321 94.6055 58.2806 94.6055 58.9902C94.6055 59.6999 94.4834 60.2533 94.2393 60.6504C93.9951 61.0443 93.6208 61.2412 93.1162 61.2412C92.6475 61.2412 92.2878 61.0443 92.0371 60.6504C91.7897 60.2533 91.666 59.6999 91.666 58.9902C91.666 58.2806 91.7848 57.7321 92.0225 57.3447C92.2601 56.9541 92.6247 56.7588 93.1162 56.7588ZM93.1162 57.3398C92.8525 57.3398 92.6589 57.4782 92.5352 57.7549C92.4115 58.0283 92.3496 58.4401 92.3496 58.9902C92.3496 59.5404 92.4115 59.9554 92.5352 60.2354C92.6589 60.5153 92.8525 60.6553 93.1162 60.6553C93.3896 60.6553 93.5931 60.5153 93.7266 60.2354C93.86 59.9554 93.9268 59.5404 93.9268 58.9902C93.9268 58.4434 93.86 58.0316 93.7266 57.7549C93.5964 57.4782 93.3929 57.3398 93.1162 57.3398ZM97.6377 56.8613L93.6777 64H92.9648L96.9248 56.8613H97.6377ZM97.4473 59.6201C97.9323 59.6201 98.3018 59.8154 98.5557 60.2061C98.8096 60.5934 98.9365 61.1419 98.9365 61.8516C98.9365 62.5579 98.8145 63.1097 98.5703 63.5068C98.3262 63.9007 97.9518 64.0977 97.4473 64.0977C96.9753 64.0977 96.6156 63.9007 96.3682 63.5068C96.1208 63.1097 95.9971 62.5579 95.9971 61.8516C95.9971 61.1419 96.1143 60.5934 96.3486 60.2061C96.5863 59.8154 96.9525 59.6201 97.4473 59.6201ZM97.4473 60.2061C97.1836 60.2061 96.9899 60.3428 96.8662 60.6162C96.7425 60.8896 96.6807 61.3014 96.6807 61.8516C96.6807 62.4017 96.7425 62.8167 96.8662 63.0967C96.9899 63.3734 97.1836 63.5117 97.4473 63.5117C97.7207 63.5117 97.9242 63.375 98.0576 63.1016C98.1911 62.8249 98.2578 62.4082 98.2578 61.8516C98.2578 61.3047 98.1911 60.8945 98.0576 60.6211C97.9274 60.3444 97.724 60.2061 97.4473 60.2061Z" fill="white"/>
<rect x="83" y="67.5355" width="5" height="5" transform="rotate(-45 83 67.5355)" fill="#A6AFB5"/>
</g>
<defs>
<linearGradient id="paint0_linear_2_537" x1="282" y1="51.5" x2="3" y2="52" gradientUnits="userSpaceOnUse">
<stop stop-color="#FC9D2D"/>
<stop offset="1" stop-color="#F74040"/>
</linearGradient>
<clipPath id="clip0_2_537">
<rect width="280" height="142" fill="white"/>
</clipPath>
</defs>
</svg>
