<svg width="21" height="21" viewBox="0 0 21 21" fill="none" xmlns="http://www.w3.org/2000/svg">
<path d="M4.11872 15.75L5.99686 17.6281C6.16771 17.799 6.16771 18.076 5.99686 18.2469C5.826 18.4177 5.549 18.4177 5.37814 18.2469L2.75314 15.6219C2.58229 15.451 2.58229 15.174 2.75314 15.0031L5.37814 12.3781C5.549 12.2073 5.826 12.2073 5.99686 12.3781C6.16771 12.549 6.16771 12.826 5.99686 12.9969L4.11872 14.875H16.1875C16.9124 14.875 17.5 14.2874 17.5 13.5625V10.9375C17.5 10.6959 17.6959 10.5 17.9375 10.5C18.1791 10.5 18.375 10.6959 18.375 10.9375V13.5625C18.375 14.7706 17.3956 15.75 16.1875 15.75H4.11872ZM16.8813 6.125L15.0031 4.24686C14.8323 4.076 14.8323 3.799 15.0031 3.62814C15.174 3.45729 15.451 3.45729 15.6219 3.62814L18.2469 6.25314C18.4177 6.424 18.4177 6.701 18.2469 6.87186L15.6219 9.49686C15.451 9.66771 15.174 9.66771 15.0031 9.49686C14.8323 9.326 14.8323 9.049 15.0031 8.87814L16.8813 7H4.8125C4.08763 7 3.5 7.58763 3.5 8.3125V10.9375C3.5 11.1791 3.30412 11.375 3.0625 11.375C2.82088 11.375 2.625 11.1791 2.625 10.9375V8.3125C2.625 7.10438 3.60438 6.125 4.8125 6.125H16.8813Z" fill="white"/>
</svg>
