<svg width="35" height="35" viewBox="0 0 35 35" fill="none" xmlns="http://www.w3.org/2000/svg">
<path d="M32.3049 4.37869H2.69515C1.21097 4.37869 0 5.58966 0 7.07384V27.9262C0 29.4103 1.21097 30.6213 2.69515 30.6213H32.3049C33.789 30.6213 35 29.4103 35 27.9262V7.07384C35 5.58966 33.789 4.37869 32.3049 4.37869ZM31.9135 6.37236L17.6846 18.5411L3.4557 6.37236H31.9135ZM33.0063 27.9262C33.0063 28.3101 32.6888 28.6276 32.3049 28.6276H2.69515C2.31118 28.6276 1.99367 28.3101 1.99367 27.9262V7.74578L17.0348 20.6087C17.0422 20.616 17.057 20.6234 17.0643 20.6308C17.0717 20.6382 17.0865 20.6456 17.0939 20.653C17.116 20.6677 17.1308 20.6825 17.153 20.6899C17.1603 20.6973 17.1677 20.6973 17.1751 20.7046C17.2046 20.7194 17.2342 20.7342 17.2637 20.7489C17.2711 20.7489 17.2785 20.7563 17.2859 20.7563C17.308 20.7637 17.3302 20.7785 17.3597 20.7859C17.3671 20.7859 17.3819 20.7932 17.3892 20.7932C17.4114 20.8006 17.4335 20.808 17.4557 20.808C17.4631 20.808 17.4778 20.8154 17.4852 20.8154C17.5074 20.8228 17.5369 20.8228 17.5591 20.8302C17.5665 20.8302 17.5738 20.8302 17.5812 20.8302C17.6108 20.8302 17.6477 20.8376 17.6772 20.8376C17.7068 20.8376 17.7437 20.8376 17.7732 20.8302C17.7806 20.8302 17.788 20.8302 17.7954 20.8302C17.8175 20.8302 17.847 20.8228 17.8692 20.8154C17.8766 20.8154 17.8913 20.808 17.8987 20.808C17.9209 20.8006 17.943 20.7932 17.9652 20.7932C17.9726 20.7932 17.9873 20.7859 17.9947 20.7859C18.0169 20.7785 18.039 20.7711 18.0686 20.7563C18.0759 20.7563 18.0833 20.7489 18.0907 20.7489C18.1203 20.7342 18.1498 20.7194 18.1793 20.7046C18.1867 20.6973 18.1941 20.6973 18.2015 20.6899C18.2236 20.6751 18.2384 20.6677 18.2605 20.653C18.2679 20.6456 18.2827 20.6382 18.2901 20.6308C18.2975 20.6234 18.3122 20.616 18.3196 20.6087L33.0063 8.06329V27.9262Z" fill="white"/>
</svg>
