<svg width="108" height="108" viewBox="0 0 108 108" fill="none" xmlns="http://www.w3.org/2000/svg">
<path d="M80.2957 9.27391C73.6043 3.28696 64.213 0 54 0C43.787 0 34.3956 3.28696 27.7043 9.27391C19.487 16.5522 15.2609 27.4696 15.2609 41.087C15.2609 70.5522 49.187 105.183 50.713 106.591C51.6522 107.53 52.8261 108 54 108C55.1739 108 56.4652 107.53 57.287 106.591C58.813 105.183 92.7391 70.5522 92.7391 41.087C92.7391 27.4696 88.513 16.5522 80.2957 9.27391ZM54 96.3783C50.8304 92.8565 45.7826 86.987 40.8522 79.9435C30.287 64.9174 24.6522 51.5348 24.6522 41.087C24.6522 11.7391 47.0739 9.3913 54 9.3913C81.2348 9.3913 83.3478 33.6913 83.3478 41.087C83.3478 61.7478 62.3348 87.2217 54 96.3783ZM54 20.3087C43.6696 20.3087 35.3348 28.8783 35.3348 39.3261C35.3348 49.7739 43.6696 58.2261 54 58.2261C64.3304 58.2261 72.6652 49.6565 72.6652 39.2087C72.6652 28.7609 64.3304 20.3087 54 20.3087ZM54 50.0087C48.2478 50.0087 43.5522 45.1957 43.5522 39.2087C43.5522 33.2217 48.2478 28.4087 54 28.4087C59.7522 28.4087 64.4478 33.2217 64.4478 39.2087C64.4478 45.1957 59.7522 50.0087 54 50.0087Z" fill="url(#paint0_linear_6_1020)"/>
<defs>
<linearGradient id="paint0_linear_6_1020" x1="54" y1="0" x2="54" y2="108" gradientUnits="userSpaceOnUse">
<stop stop-color="#FC8E26"/>
<stop offset="1" stop-color="#F94D55"/>
</linearGradient>
</defs>
</svg>
