<svg width="53" height="53" viewBox="0 0 53 53" fill="none" xmlns="http://www.w3.org/2000/svg">
<path fill-rule="evenodd" clip-rule="evenodd" d="M42.3636 6.41877C37.28 2.39717 30.8597 0.454662 24.3993 0.983576C17.939 1.51249 11.9201 4.47341 7.5584 9.2683C3.19667 14.0632 0.817137 20.3347 0.900431 26.8161C0.983724 33.2975 3.52363 39.5058 8.00714 44.187C8.58016 44.7853 9.52969 44.8058 10.128 44.2328C10.7263 43.6598 10.7467 42.7102 10.1737 42.112C6.21585 37.9796 3.97371 32.4991 3.90018 26.7776C3.82665 21.056 5.92721 15.5198 9.77759 11.287C13.628 7.05427 18.9412 4.44048 24.6441 3.97357C30.3471 3.50667 36.0147 5.22144 40.5023 8.77155C44.9898 12.3217 47.9629 17.4425 48.821 23.0998C49.6791 28.7572 48.3582 34.5293 45.1251 39.2504C41.8921 43.9716 36.9879 47.2898 31.403 48.535C25.8181 49.7802 19.9687 48.8595 15.0364 45.9588C14.3223 45.5389 13.403 45.7773 12.983 46.4914C12.5631 47.2055 12.8015 48.1249 13.5156 48.5448C19.103 51.8307 25.7292 52.8736 32.0558 51.4631C38.3824 50.0526 43.938 46.2936 47.6004 40.9455C51.2628 35.5974 52.7591 29.0586 51.7871 22.65C50.815 16.2413 47.4471 10.4404 42.3636 6.41877ZM36.9375 24.4844H27.2812V14.5H24.0703V24.4844H14.4141V27.6719H24.0703V37.6094H27.2812V27.6719H36.9375V24.4844Z" fill="url(#paint0_linear_5_974)"/>
<defs>
<linearGradient id="paint0_linear_5_974" x1="52.1684" y1="18.7604" x2="0.898186" y2="18.8025" gradientUnits="userSpaceOnUse">
<stop stop-color="#FC9D2D"/>
<stop offset="1" stop-color="#F74040"/>
</linearGradient>
</defs>
</svg>
