<svg width="30" height="30" viewBox="0 0 30 30" fill="none" xmlns="http://www.w3.org/2000/svg">
<path d="M27.8827 8.16063C27.7908 5.89561 26.8224 3.79801 25.1548 2.25845C24.367 1.53299 23.4708 0.968377 22.4893 0.581026C21.5078 0.196958 20.4705 0 19.4037 0C19.2888 0 19.1706 0.00328264 19.0557 0.00656527C16.7907 0.098479 14.6964 1.06686 13.1535 2.73772L3.60435 13.0419C3.29907 13.3735 3.31548 13.8889 3.64374 14.1974L4.30684 14.8211C4.63838 15.1329 5.16032 15.1165 5.47217 14.7817L15.0279 4.47095C16.1178 3.2892 17.7164 2.60969 19.4102 2.60969C20.9334 2.60969 22.3613 3.15133 23.4249 4.13612C24.5902 5.21282 25.2697 6.67688 25.3321 8.26567C25.3945 9.85119 24.843 11.3612 23.7729 12.52L10.7934 26.376C10.1434 27.0785 9.19471 27.4822 8.18694 27.4822C7.28094 27.4822 6.43073 27.1605 5.79719 26.5729C5.10455 25.9328 4.70407 25.0629 4.66139 24.1175C4.622 23.1754 4.95027 22.276 5.58381 21.5899C5.58381 21.5899 17.6639 8.69898 17.6836 8.68257C18.7406 7.58617 20.3983 9.18153 19.3414 10.2779C17.5458 12.1392 12.9337 17.1189 10.6752 19.5645C10.3699 19.8961 10.3863 20.4114 10.7146 20.72L11.3777 21.3437C11.7092 21.6555 12.2311 21.6391 12.543 21.3043L21.2387 11.9291C22.6141 10.4388 22.5222 8.10483 21.0286 6.72612C20.3491 6.09914 19.4595 5.75118 18.5305 5.75118C18.0283 5.75118 17.5424 5.84966 17.0829 6.04661C16.6102 6.24685 16.19 6.54229 15.842 6.92308L3.71925 19.8501C1.44438 22.3154 1.60195 26.1724 4.0672 28.4506C5.15047 29.4518 6.61125 30 8.18035 30C9.92342 30 11.5549 29.3139 12.6579 28.119L25.6374 14.263C27.1737 12.5955 27.9713 10.4289 27.8827 8.16063Z" fill="#A6AFB5"/>
</svg>
