<svg width="17" height="15" viewBox="0 0 17 15" fill="none" xmlns="http://www.w3.org/2000/svg">
<path d="M16.9758 3.1001C16.9705 3.0823 16.9665 3.06424 16.9594 3.04697C16.9517 3.02891 16.9413 3.01218 16.9317 2.99518C16.9246 2.9819 16.9187 2.96808 16.9105 2.95587C16.8908 2.92665 16.8685 2.89902 16.8438 2.87432L14.7191 0.749584C14.5116 0.542131 14.1753 0.542131 13.9679 0.749584C13.7604 0.957037 13.7604 1.29332 13.9679 1.50077L15.1863 2.71866H12.5301L4.03006 11.2187H0.53125C0.238 11.2187 0 11.4567 0 11.7499C0 12.0432 0.238 12.2812 0.53125 12.2812H4.46994L12.9699 3.78116H15.1863L13.9682 4.99932C13.7607 5.20677 13.7607 5.54305 13.9682 5.75051C14.072 5.85437 14.2078 5.90616 14.3438 5.90616C14.4797 5.90616 14.6155 5.85437 14.7193 5.75051L16.8441 3.62577C16.8688 3.60107 16.8911 3.57371 16.9108 3.54422C16.919 3.53174 16.9248 3.51793 16.932 3.50491C16.9413 3.48791 16.9517 3.47118 16.9596 3.45311C16.9665 3.43585 16.9708 3.41779 16.9761 3.39999C16.9806 3.38458 16.9865 3.36997 16.9899 3.35404C17.0035 3.28524 17.0035 3.21485 16.9899 3.14605C16.9862 3.13012 16.9803 3.11524 16.9758 3.1001Z" fill="white"/>
<path d="M16.9596 11.9531C16.9665 11.9359 16.9708 11.9178 16.9761 11.9C16.9806 11.8846 16.9864 11.87 16.9899 11.8541C17.0034 11.7853 17.0034 11.7149 16.9899 11.6461C16.9864 11.6301 16.9806 11.6155 16.9761 11.6001C16.9708 11.5823 16.9668 11.5643 16.9596 11.547C16.9519 11.5289 16.9416 11.5122 16.932 11.4952C16.9248 11.4819 16.919 11.4681 16.9107 11.4559C16.8911 11.4267 16.8688 11.399 16.8441 11.3743L14.7193 9.24961C14.5119 9.04215 14.1756 9.04215 13.9682 9.24961C13.7607 9.45706 13.7607 9.79334 13.9682 10.0008L15.1863 11.2187H12.9699L10.4693 8.71809C10.2619 8.51064 9.9256 8.51064 9.71815 8.71809C9.5107 8.92554 9.5107 9.26183 9.71815 9.46928L12.5301 12.2812H15.1863L13.9682 13.4993C13.7607 13.7068 13.7607 14.0431 13.9682 14.2505C14.072 14.3544 14.2077 14.4062 14.3437 14.4062C14.4797 14.4062 14.6155 14.3544 14.7193 14.2505L16.8441 12.1258C16.8688 12.1011 16.8911 12.0737 16.9107 12.0442C16.919 12.0318 16.9248 12.0179 16.932 12.0049C16.9413 11.9879 16.9517 11.9712 16.9596 11.9531Z" fill="white"/>
<path d="M0.53125 3.78125H4.03006L6.53066 6.28184C6.63452 6.3857 6.77025 6.4375 6.90625 6.4375C7.04225 6.4375 7.17798 6.3857 7.28184 6.28184C7.4893 6.07439 7.4893 5.73811 7.28184 5.53066L4.46994 2.71875H0.53125C0.238 2.71875 0 2.95675 0 3.25C0 3.54325 0.238 3.78125 0.53125 3.78125Z" fill="white"/>
</svg>
