<svg width="15" height="15" viewBox="0 0 15 15" fill="none" xmlns="http://www.w3.org/2000/svg">
<g clip-path="url(#clip0_3_715)">
<path d="M12.8131 6.21036V5.3261C12.8131 4.60935 12.6725 3.91341 12.3951 3.2577C12.1274 2.62488 11.7445 2.05681 11.2569 1.5692C10.7694 1.08162 10.2013 0.698694 9.56844 0.431057C8.91271 0.153715 8.2168 0.0130615 7.50001 0.0130615C6.78323 0.0130615 6.08732 0.153715 5.43159 0.431057C4.79876 0.69872 4.23069 1.08162 3.74309 1.5692C3.25551 2.05678 2.87255 2.62488 2.60491 3.2577C2.32757 3.91343 2.18692 4.60935 2.18692 5.3261V6.21036C1.42142 6.28668 0.821655 6.93445 0.821655 7.7197V13.47C0.821655 14.3065 1.50215 14.987 2.33856 14.987H12.6614C13.4979 14.987 14.1784 14.3065 14.1784 13.47V7.7197C14.1784 6.93445 13.5786 6.2867 12.8131 6.21036ZM1.9394 13.47V7.7197C1.9394 7.55295 2.0417 7.41013 2.18697 7.35041C2.23373 7.33121 2.28489 7.32051 2.33861 7.32051H2.74586H3.30471H11.6954H12.2543H12.6615C12.7152 7.32051 12.7664 7.33118 12.8132 7.35041C12.9584 7.41013 13.0607 7.55295 13.0607 7.7197V13.47C13.0607 13.6905 12.882 13.8693 12.6615 13.8693H2.33858C2.11812 13.8693 1.9394 13.6905 1.9394 13.47ZM3.30469 5.3261C3.30469 3.00909 5.18302 1.13078 7.50004 1.13078C9.81706 1.13078 11.6954 3.00911 11.6954 5.3261V6.2028H3.30469V5.3261Z" fill="#A6AFB5"/>
<path d="M12.6614 15H2.33854C1.49493 15 0.808594 14.3137 0.808594 13.47V7.71968C0.808594 7.33837 0.950291 6.97282 1.20757 6.69039C1.46044 6.41278 1.80322 6.23845 2.17386 6.19861V5.32611C2.17386 4.60761 2.31482 3.91 2.5929 3.25262C2.86119 2.61826 3.24508 2.04878 3.73386 1.56C4.22261 1.07125 4.79212 0.68738 5.42648 0.419066C6.08388 0.140967 6.78149 0 7.5 0C8.2185 0 8.91614 0.140967 9.57351 0.419039C10.2079 0.687328 10.7774 1.0712 11.2662 1.55998C11.7549 2.04876 12.1388 2.61823 12.4071 3.2526C12.6851 3.90992 12.8261 4.60756 12.8261 5.32609V6.19858C13.1968 6.23842 13.5396 6.41278 13.7925 6.69039C14.0497 6.97282 14.1914 7.33834 14.1914 7.71968V13.47C14.1914 14.3137 13.5051 15 12.6614 15ZM7.5 0.0260905C6.78501 0.0260905 6.0908 0.166379 5.43666 0.443043C4.80537 0.710053 4.23869 1.09204 3.75231 1.5784C3.2659 2.0648 2.88391 2.63149 2.61693 3.26275C2.34026 3.91689 2.19997 4.61108 2.19997 5.32606V6.22214L2.18821 6.22331C1.8195 6.26008 1.47808 6.43217 1.22688 6.70794C0.973981 6.98555 0.83471 7.34487 0.83471 7.71966V13.47C0.83471 14.2992 1.50933 14.9739 2.33857 14.9739H12.6615C13.4907 14.9739 14.1653 14.2993 14.1653 13.47V7.71966C14.1653 7.34484 14.0261 6.98555 13.7732 6.70794C13.522 6.43219 13.1806 6.26008 12.8118 6.22331L12.8001 6.22214V5.32606C12.8001 4.61103 12.6598 3.91681 12.3831 3.26275C12.1161 2.63149 11.7341 2.06478 11.2477 1.5784C10.7613 1.09202 10.1946 0.710027 9.56339 0.443043C8.90922 0.166379 8.21501 0.0260905 7.5 0.0260905ZM12.6615 13.8823H2.33857C2.11127 13.8823 1.92634 13.6974 1.92634 13.47V7.71968C1.92634 7.55187 2.02668 7.40219 2.182 7.33834C2.23183 7.31786 2.28453 7.30748 2.33857 7.30748H12.6615C12.7155 7.30748 12.7682 7.31786 12.8181 7.33834C12.9734 7.40219 13.0737 7.55189 13.0737 7.71968V13.47C13.0737 13.6974 12.8888 13.8823 12.6615 13.8823ZM2.33857 7.33357C2.28793 7.33357 2.23859 7.3433 2.19189 7.36248C2.04641 7.42228 1.9524 7.56251 1.9524 7.71968V13.47C1.9524 13.683 2.12562 13.8562 2.33854 13.8562H12.6615C12.8744 13.8562 13.0476 13.683 13.0476 13.47V7.71968C13.0476 7.56251 12.9536 7.42228 12.8081 7.36248C12.7614 7.3433 12.7121 7.33357 12.6615 7.33357H2.33857ZM11.7084 6.21583H3.29163V5.32609C3.29163 3.00557 5.17951 1.11772 7.50002 1.11772C9.82054 1.11772 11.7084 3.00557 11.7084 5.32609V6.21583ZM3.31772 6.18973H11.6823V5.32609C11.6823 3.01997 9.80616 1.14381 7.50002 1.14381C5.19388 1.14381 3.31772 3.01997 3.31772 5.32609V6.18973Z" fill="#A6AFB5"/>
<path d="M7.50001 7.88916C6.60414 7.88916 5.87531 8.61802 5.87531 9.51389C5.87531 10.2089 6.31404 10.8033 6.92905 11.0349V12.0937V12.3152C6.92905 12.4503 6.977 12.5742 7.05684 12.6709C7.15932 12.795 7.31438 12.8741 7.48788 12.8741C7.66031 12.8741 7.81448 12.7959 7.91699 12.6731C7.99798 12.5762 8.04674 12.4514 8.04674 12.3152V12.0971V11.0439C8.67445 10.8189 9.12472 10.2181 9.12472 9.51389C9.12475 8.61802 8.39591 7.88916 7.50001 7.88916ZM7.50001 10.0209C7.22001 10.0209 6.993 9.79392 6.993 9.51389C6.993 9.23386 7.22001 9.00685 7.50001 9.00685C7.78002 9.00685 8.00703 9.23386 8.00703 9.51389C8.00703 9.79392 7.78004 10.0209 7.50001 10.0209Z" fill="#A6AFB5"/>
<path d="M7.48789 12.8871C7.31668 12.8871 7.15591 12.8114 7.04678 12.6792C6.96243 12.5771 6.91599 12.4478 6.91599 12.3152V11.0439C6.28535 10.8024 5.86224 10.1887 5.86224 9.51388C5.86224 8.61081 6.59695 7.8761 7.5 7.8761C8.40304 7.8761 9.13778 8.61081 9.13778 9.51388C9.13778 10.2003 8.70493 10.8177 8.05979 11.053V12.3151C8.05979 12.4489 8.01262 12.5789 7.92702 12.6815C7.81791 12.8122 7.65784 12.8871 7.48789 12.8871ZM7.5 7.90219C6.6113 7.90219 5.88833 8.62521 5.88833 9.51388C5.88833 10.1809 6.30842 10.7873 6.93362 11.0227L6.94208 11.0259V12.3151C6.94208 12.4417 6.9864 12.5651 7.06689 12.6626C7.17105 12.7887 7.32451 12.861 7.48789 12.861C7.65007 12.861 7.80283 12.7895 7.90698 12.6647C7.9887 12.5669 8.03368 12.4427 8.03368 12.3151V11.0347L8.04231 11.0316C8.68195 10.8023 9.11166 10.1924 9.11166 9.51388C9.11168 8.62521 8.38869 7.90219 7.5 7.90219ZM7.5 10.034C7.21324 10.034 6.97993 9.80066 6.97993 9.51388C6.97993 9.22709 7.21324 8.99379 7.5 8.99379C7.78676 8.99379 8.02006 9.22709 8.02006 9.51388C8.02006 9.80066 7.78676 10.034 7.5 10.034ZM7.5 9.01991C7.22764 9.01991 7.00603 9.24149 7.00603 9.5139C7.00603 9.78631 7.22761 10.0079 7.5 10.0079C7.77238 10.0079 7.99397 9.78631 7.99397 9.5139C7.99397 9.24149 7.77238 9.01991 7.5 9.01991Z" fill="#A6AFB5"/>
</g>
<defs>
<clipPath id="clip0_3_715">
<rect width="15" height="15" fill="white"/>
</clipPath>
</defs>
</svg>
