<svg width="21" height="21" viewBox="0 0 21 21" fill="none" xmlns="http://www.w3.org/2000/svg">
<path d="M15.128 2.00865C13.5572 2.00865 12.0773 2.62312 10.9652 3.73522L10.5065 4.1939L10.0392 3.72656C8.92706 2.61447 7.44715 2 5.87637 2C4.30991 2 2.83433 2.61014 1.72223 3.72223C0.610138 4.83433 0 6.30991 0 7.88069C0 9.45147 0.614465 10.9271 1.72656 12.0392L9.96992 20.2825L9.98722 20.2998C10.13 20.4426 10.3204 20.5118 10.5065 20.5118C10.6969 20.5118 10.8873 20.4383 11.0301 20.2955L19.2734 12.0521C20.3855 10.94 21 9.46446 21 7.89367C21 6.32289 20.3899 4.84298 19.2778 3.73522C18.17 2.61879 16.6944 2.00865 15.128 2.00865ZM18.2263 11.0006L10.5108 18.7204L2.77808 10.9876C1.94725 10.1568 1.48856 9.05337 1.48424 7.87637C1.48424 6.70369 1.93859 5.60025 2.76942 4.76942C3.60025 3.94292 4.70369 3.48424 5.87204 3.48424C7.04904 3.48424 8.15248 3.94292 8.98764 4.77808L9.97857 5.76901C10.2555 6.04595 10.7488 6.04595 11.0301 5.76901L12.0167 4.7824C12.8475 3.95158 13.9553 3.49289 15.128 3.49289C16.3006 3.49289 17.4041 3.95158 18.2349 4.7824C19.0657 5.61323 19.5244 6.71667 19.5201 7.89367C19.5201 9.06635 19.0614 10.1698 18.2263 11.0006Z" fill="#A6AFB5"/>
</svg>
