<svg width="23" height="23" viewBox="0 0 23 23" fill="none" xmlns="http://www.w3.org/2000/svg">
<g clip-path="url(#clip0_3_862)">
<path d="M22.6036 5.70394L16.9307 0V3.40607C15.4052 3.41827 14.2927 3.76392 13.5621 4.10326H0.396423V22.9996H19.2928V9.03285L22.6036 5.70394ZM17.0193 4.19302C17.115 4.19302 17.213 4.19459 17.3122 4.19774L17.7177 4.20955V1.90853L21.493 5.70433L19.2924 7.91639L18.9192 8.29156L17.7177 9.49974V7.29438V7.29399L17.4165 7.22116C17.3697 7.20974 16.2579 6.94952 14.7734 7.31564C14.3203 7.42784 13.801 7.60972 13.2534 7.89749C12.7353 8.16952 12.1917 8.53721 11.6527 9.03481C11.2961 9.36393 10.941 9.74854 10.5977 10.2005C10.643 9.20252 10.9323 7.6916 12.0783 6.29524C12.3425 5.97321 12.6523 5.65749 13.0152 5.35554C13.0156 5.35515 13.0314 5.34137 13.0578 5.32011C13.0617 5.31696 13.0652 5.31381 13.07 5.31027C13.0806 5.302 13.0948 5.29098 13.1085 5.28074C13.1192 5.27247 13.1298 5.2646 13.1424 5.25555C13.1546 5.24649 13.1696 5.23586 13.1837 5.22602C13.2042 5.21145 13.2255 5.19649 13.2495 5.18035C13.2605 5.17287 13.2727 5.165 13.2849 5.15673C13.3188 5.13429 13.3558 5.11107 13.3963 5.08627C13.4018 5.08272 13.4077 5.07957 13.4132 5.07603C13.9821 4.73235 15.1686 4.19302 17.0193 4.19302ZM18.5054 9.82452V22.2127H1.18377V4.891H12.3476C12.3204 4.91462 12.296 4.93864 12.2696 4.96226C12.2228 5.00438 12.1767 5.04611 12.1318 5.08863C12.0826 5.13469 12.0346 5.18114 11.9874 5.22759C11.9441 5.27011 11.9015 5.31302 11.8602 5.35593C11.8145 5.40317 11.7701 5.45041 11.7264 5.49766C11.687 5.54057 11.648 5.58348 11.6098 5.62639C11.5677 5.67441 11.5268 5.72244 11.4862 5.77086C11.45 5.81417 11.4142 5.85747 11.3795 5.90078C11.341 5.9492 11.3036 5.99801 11.2665 6.04644C11.2335 6.09013 11.2008 6.13344 11.1693 6.17753C11.1339 6.22635 11.1 6.27516 11.0666 6.32398C11.0366 6.36767 11.0067 6.41177 10.978 6.45546C10.9457 6.50467 10.915 6.55388 10.8843 6.60309C10.8575 6.6464 10.8307 6.6897 10.8048 6.7334C10.7752 6.78339 10.7473 6.833 10.7193 6.88299C10.6953 6.9259 10.6717 6.96881 10.6489 7.01172C10.6221 7.06172 10.5969 7.11172 10.5717 7.16171C10.5505 7.20384 10.5292 7.24635 10.5091 7.28848C10.4851 7.33887 10.4623 7.38926 10.4398 7.43925C10.4213 7.48098 10.4024 7.52232 10.3847 7.56405C10.3635 7.61405 10.3434 7.66404 10.3233 7.71364C10.3068 7.75459 10.2902 7.79592 10.2749 7.83686C10.256 7.88686 10.2383 7.93646 10.2209 7.98607C10.2068 8.02583 10.1926 8.06559 10.1796 8.10535C10.1631 8.15535 10.1477 8.20456 10.1324 8.25416C10.1202 8.29313 10.108 8.33211 10.0969 8.37069C10.0828 8.4199 10.0694 8.46832 10.0564 8.51674C10.0462 8.55453 10.0359 8.59233 10.0265 8.63012C10.0143 8.67933 10.0029 8.72736 9.99183 8.77578C9.98356 8.8116 9.9749 8.84743 9.96742 8.88286C9.95679 8.93167 9.94774 8.97931 9.93829 9.02733C9.9316 9.06158 9.92451 9.09583 9.91861 9.12969C9.90995 9.17772 9.90247 9.22496 9.89459 9.2722C9.88947 9.30448 9.88396 9.33676 9.87924 9.36865C9.87215 9.41589 9.86625 9.46195 9.86034 9.50801C9.85641 9.53872 9.85208 9.56942 9.84853 9.59974C9.84302 9.6458 9.83869 9.69067 9.83436 9.73555C9.8316 9.7639 9.82845 9.79264 9.82609 9.82059C9.82216 9.86547 9.8194 9.90877 9.81625 9.95247C9.81428 9.97924 9.81231 10.006 9.81074 10.032C9.80838 10.0753 9.80641 10.117 9.80483 10.1591C9.80405 10.1836 9.80247 10.2084 9.80169 10.2324C9.8005 10.2745 9.79972 10.315 9.79932 10.3556C9.79893 10.3772 9.79854 10.3993 9.79814 10.4205C9.79775 10.4615 9.79814 10.5009 9.79854 10.5398C9.79854 10.5587 9.79854 10.5784 9.79893 10.5965C9.79972 10.6343 9.8009 10.6701 9.80208 10.706C9.80247 10.7237 9.80287 10.7426 9.80365 10.7599C9.80523 10.7953 9.8072 10.8288 9.80877 10.8619C9.80956 10.8772 9.81035 10.8933 9.81113 10.9079C9.8131 10.9414 9.81546 10.9721 9.81822 11.0028C9.81901 11.0154 9.82019 11.0292 9.82098 11.041C9.82373 11.0725 9.82649 11.1016 9.82924 11.1299C9.83003 11.139 9.83082 11.1492 9.832 11.1583C9.83515 11.187 9.8379 11.213 9.84105 11.2382C9.84184 11.2449 9.84263 11.2528 9.84341 11.2591C9.84696 11.287 9.85011 11.3118 9.85326 11.3347C9.85365 11.337 9.85404 11.3398 9.85404 11.3421C9.86074 11.3882 9.86625 11.4224 9.87058 11.4461C9.87097 11.448 9.87137 11.4512 9.87176 11.4532C9.87373 11.465 9.8753 11.4732 9.87648 11.478L10.0733 12.4909L10.6012 11.6043C12.3511 8.66476 14.5817 8.00733 15.9591 7.91403C16.3705 7.88647 16.7067 7.90851 16.9303 7.93568V11.4067V11.4071L18.5054 9.82452Z" fill="#979797"/>
</g>
<defs>
<clipPath id="clip0_3_862">
<rect width="23" height="23" fill="white"/>
</clipPath>
</defs>
</svg>
