<svg width="20" height="20" viewBox="0 0 20 20" fill="none" xmlns="http://www.w3.org/2000/svg">
<path d="M9.74807 9.13185L0.562149 9.13185C0.249844 9.13185 1.38333e-07 9.3817 1.24682e-07 9.694C1.1103e-07 10.0063 0.249844 10.2562 0.562149 10.2562L9.74807 10.2562C10.0104 11.5595 11.1639 12.5464 12.5463 12.5464C13.9288 12.5464 15.0822 11.5595 15.3446 10.2562L19.4337 10.2562C19.746 10.2562 19.9958 10.0063 19.9958 9.694C19.9958 9.3817 19.746 9.13185 19.4337 9.13185L15.3446 9.13185C15.0822 7.8285 13.9288 6.84162 12.5463 6.84162C11.168 6.84162 10.0104 7.82434 9.74807 9.13185ZM14.2744 9.694C14.2744 10.6476 13.4999 11.4221 12.5463 11.4221C11.5928 11.4221 10.8182 10.6476 10.8182 9.694C10.8182 8.74043 11.5928 7.96592 12.5463 7.96592C13.4999 7.96592 14.2744 8.74043 14.2744 9.694Z" fill="white"/>
<path d="M5.03435 16.015L0.562149 16.015C0.249844 16.015 1.38333e-07 16.2649 1.24682e-07 16.5772C1.1103e-07 16.8895 0.249844 17.1393 0.562149 17.1393L5.03435 17.1393C5.29669 18.4427 6.45014 19.4296 7.8326 19.4296C9.21507 19.4296 10.3685 18.4427 10.6309 17.1393L19.4337 17.1393C19.746 17.1393 19.9958 16.8895 19.9958 16.5772C19.9958 16.2649 19.746 16.015 19.4337 16.015L10.6267 16.015C10.3644 14.7117 9.21091 13.7248 7.82844 13.7248C6.44597 13.7248 5.29669 14.7117 5.03435 16.015ZM9.56069 16.5772C9.56069 17.5308 8.78617 18.3053 7.8326 18.3053C6.87903 18.3053 6.10452 17.5308 6.10452 16.5772C6.10452 15.6236 6.87903 14.8491 7.8326 14.8491C8.78617 14.8491 9.56069 15.6278 9.56069 16.5772Z" fill="white"/>
<path d="M5.03435 2.2903L0.562149 2.2903C0.249844 2.2903 1.38333e-07 2.54015 1.24682e-07 2.85245C1.1103e-07 3.16475 0.249844 3.4146 0.562149 3.4146L5.03435 3.4146C5.29669 4.71795 6.45014 5.70483 7.83261 5.70483C9.21507 5.70483 10.3685 4.71795 10.6309 3.4146L19.4379 3.4146C19.7502 3.4146 20 3.16476 20 2.85245C20 2.54015 19.7502 2.2903 19.4379 2.2903L10.6267 2.2903C10.3644 0.986949 9.21091 6.62061e-05 7.82844 6.61457e-05C6.44597 6.60853e-05 5.29669 0.982785 5.03435 2.2903ZM9.56069 2.85245C9.56069 3.80602 8.78618 4.58054 7.83261 4.58054C6.87903 4.58054 6.10452 3.80602 6.10452 2.85245C6.10452 1.89888 6.87903 1.12436 7.83261 1.12436C8.78618 1.12436 9.56069 1.89888 9.56069 2.85245Z" fill="white"/>
</svg>
