<svg width="124" height="253" viewBox="0 0 124 253" fill="none" xmlns="http://www.w3.org/2000/svg">
<g filter="url(#filter0_d_22_19)">
<path d="M12 199.5V102H111.5V199.5C110.667 214.667 99.3 245 60.5 245C21.7 245 12 214.667 12 199.5Z" fill="white"/>
</g>
<path d="M20 102H105V145C105 150.523 100.523 155 95 155H30C24.4772 155 20 150.523 20 145V102Z" fill="#FFEBE1"/>
<path d="M53 165V134H70V165C70.1667 167.667 68.8 173 62 173C55.2 173 53.1667 167.667 53 165Z" fill="url(#paint0_linear_22_19)"/>
<circle cx="36" cy="122" r="6" fill="url(#paint1_linear_22_19)"/>
<circle cx="89" cy="122" r="6" fill="url(#paint2_linear_22_19)"/>
<g filter="url(#filter1_d_22_19)">
<rect x="4" y="90" width="116" height="12" rx="3" fill="white"/>
</g>
<path d="M62 8L110.497 89.75H13.5026L62 8Z" fill="url(#paint3_linear_22_19)"/>
<circle cx="62" cy="10" r="10" fill="url(#paint4_linear_22_19)"/>
<defs>
<filter id="filter0_d_22_19" x="8" y="102" width="107.5" height="151" filterUnits="userSpaceOnUse" color-interpolation-filters="sRGB">
<feFlood flood-opacity="0" result="BackgroundImageFix"/>
<feColorMatrix in="SourceAlpha" type="matrix" values="0 0 0 0 0 0 0 0 0 0 0 0 0 0 0 0 0 0 127 0" result="hardAlpha"/>
<feOffset dy="4"/>
<feGaussianBlur stdDeviation="2"/>
<feComposite in2="hardAlpha" operator="out"/>
<feColorMatrix type="matrix" values="0 0 0 0 0 0 0 0 0 0 0 0 0 0 0 0 0 0 0.07 0"/>
<feBlend mode="normal" in2="BackgroundImageFix" result="effect1_dropShadow_22_19"/>
<feBlend mode="normal" in="SourceGraphic" in2="effect1_dropShadow_22_19" result="shape"/>
</filter>
<filter id="filter1_d_22_19" x="0" y="88" width="124" height="20" filterUnits="userSpaceOnUse" color-interpolation-filters="sRGB">
<feFlood flood-opacity="0" result="BackgroundImageFix"/>
<feColorMatrix in="SourceAlpha" type="matrix" values="0 0 0 0 0 0 0 0 0 0 0 0 0 0 0 0 0 0 127 0" result="hardAlpha"/>
<feOffset dy="2"/>
<feGaussianBlur stdDeviation="2"/>
<feComposite in2="hardAlpha" operator="out"/>
<feColorMatrix type="matrix" values="0 0 0 0 0 0 0 0 0 0 0 0 0 0 0 0 0 0 0.13 0"/>
<feBlend mode="normal" in2="BackgroundImageFix" result="effect1_dropShadow_22_19"/>
<feBlend mode="normal" in="SourceGraphic" in2="effect1_dropShadow_22_19" result="shape"/>
</filter>
<linearGradient id="paint0_linear_22_19" x1="62" y1="171" x2="62" y2="134" gradientUnits="userSpaceOnUse">
<stop offset="0.546875" stop-color="#E08A89"/>
<stop offset="1" stop-color="#E08B8B" stop-opacity="0"/>
</linearGradient>
<linearGradient id="paint1_linear_22_19" x1="36" y1="128" x2="36" y2="116" gradientUnits="userSpaceOnUse">
<stop/>
<stop offset="1" stop-color="#9B9695"/>
</linearGradient>
<linearGradient id="paint2_linear_22_19" x1="89" y1="128" x2="89" y2="116" gradientUnits="userSpaceOnUse">
<stop/>
<stop offset="1" stop-color="#9B9695"/>
</linearGradient>
<linearGradient id="paint3_linear_22_19" x1="62" y1="8" x2="62" y2="118.5" gradientUnits="userSpaceOnUse">
<stop stop-color="#F88333"/>
<stop offset="1" stop-color="#F84D4A"/>
</linearGradient>
<linearGradient id="paint4_linear_22_19" x1="62" y1="0" x2="62" y2="20" gradientUnits="userSpaceOnUse">
<stop stop-color="#FEFEFE"/>
<stop offset="1" stop-color="#EBECEC"/>
</linearGradient>
</defs>
</svg>
