<svg width="13" height="15" viewBox="0 0 13 15" fill="none" xmlns="http://www.w3.org/2000/svg">
<path d="M9.65569 7.24829C9.45282 7.50374 9.22492 7.73957 8.96315 7.95243C10.4573 8.8095 11.466 10.4208 11.466 12.2634C11.466 13.2589 9.28467 14.0388 6.49998 14.0388C3.71528 14.0388 1.53392 13.2589 1.53392 12.2634C1.53392 10.4208 2.54264 8.8095 4.0368 7.95243C3.77507 7.73957 3.54716 7.50378 3.34427 7.24829C1.68035 8.29905 0.572754 10.1542 0.572754 12.2634C0.572754 12.9023 0.922603 13.7927 2.58938 14.4064C3.62907 14.7892 5.01788 15 6.50001 15C7.98214 15 9.37095 14.7892 10.4106 14.4064C12.0774 13.7927 12.4273 12.9023 12.4273 12.2634C12.4272 10.1542 11.3196 8.29905 9.65569 7.24829Z" fill="#A6AFB5"/>
<path d="M6.49993 7.88163C8.36792 7.88163 9.80637 6.07598 9.80637 3.94083C9.80637 1.8047 8.3672 0 6.49993 0C4.63193 0 3.19348 1.80565 3.19348 3.9408C3.19348 6.07694 4.63268 7.88163 6.49993 7.88163ZM6.49993 0.961165C7.79309 0.961165 8.8452 2.29782 8.8452 3.9408C8.8452 5.58378 7.79309 6.92043 6.49993 6.92043C5.20676 6.92043 4.15465 5.58378 4.15465 3.9408C4.15465 2.29782 5.20676 0.961165 6.49993 0.961165Z" fill="#A6AFB5"/>
</svg>
