<svg width="95" height="72" viewBox="0 0 95 72" fill="none" xmlns="http://www.w3.org/2000/svg">
<path d="M74.002 46.2917C73.9961 46.2487 73.9857 46.2086 73.9812 46.1656C77.1727 43.5887 80.1562 40.087 80.1562 34.1406C80.1562 23.8613 71.8334 14.8438 62.3438 14.8438C57.0267 14.8438 52.1387 17.1623 48.7439 21.1984C46.9122 20.9327 45.0152 20.7812 43.0469 20.7812C30.7266 20.7812 22.2493 27.1329 17.1861 40.182C10.2748 40.8366 0 44.7539 0 56.4062C0 63.7955 5.50852 71.25 17.8125 71.25H71.25C79.4616 71.25 83.125 67.588 83.125 59.375C83.125 52.345 79.6278 47.4688 74.002 46.2917ZM62.3438 20.7812C69.1407 20.7812 74.2188 27.8335 74.2188 34.1406C74.2188 36.2692 73.6829 37.8976 72.3603 39.4992C69.5163 31.6825 63.5817 25.8474 55.5661 22.9143C57.527 21.5427 59.8648 20.7812 62.3438 20.7812ZM71.25 65.3125H17.8125C9.05766 65.3125 5.9375 60.7109 5.9375 56.4062C5.9375 52.1743 7.9607 49.2664 12.1244 47.5193C15.6201 46.0513 19.2672 46.0156 19.2969 46.0156H21.4106L22.1023 44.0191C26.2497 32.0551 32.7082 26.7188 43.0469 26.7188C57.9723 26.7188 67.6415 35.3029 68.2842 49.1224L68.4163 51.9531H71.25C76.1573 51.9531 77.1875 55.9891 77.1875 59.375C77.1875 64.3135 76.1885 65.3125 71.25 65.3125Z" fill="url(#paint0_linear_2_515)"/>
<path d="M92.0312 29.6875H86.0938C84.455 29.6875 83.125 31.0175 83.125 32.6562C83.125 34.295 84.455 35.625 86.0938 35.625H92.0312C93.67 35.625 95 34.295 95 32.6562C95 31.0175 93.67 29.6875 92.0312 29.6875Z" fill="url(#paint1_linear_2_515)"/>
<path d="M65.3125 8.90625V2.96875C65.3125 1.33 63.9825 0 62.3438 0C60.705 0 59.375 1.33 59.375 2.96875V8.90625C59.375 10.545 60.705 11.875 62.3438 11.875C63.9825 11.875 65.3125 10.545 65.3125 8.90625Z" fill="url(#paint2_linear_2_515)"/>
<path d="M80.7708 15.4583L85.2239 11.0052C86.3832 9.84585 86.3832 7.96664 85.2239 6.80734C84.0646 5.64804 82.1854 5.64804 81.0261 6.80734L76.573 11.2605C75.4137 12.4198 75.4137 14.299 76.573 15.4583C77.1534 16.0387 77.9119 16.3281 78.6719 16.3281C79.4319 16.3281 80.1904 16.0387 80.7708 15.4583Z" fill="url(#paint3_linear_2_515)"/>
<path d="M46.0156 16.3281C46.7756 16.3281 47.5341 16.0387 48.1145 15.4583C49.2738 14.299 49.2738 12.4198 48.1145 11.2605L43.6614 6.80734C42.5021 5.64804 40.6229 5.64804 39.4636 6.80734C38.3043 7.96664 38.3043 9.84585 39.4636 11.0052L43.9167 15.4583C44.4971 16.0387 45.2556 16.3281 46.0156 16.3281Z" fill="url(#paint4_linear_2_515)"/>
<defs>
<linearGradient id="paint0_linear_2_515" x1="44.1875" y1="78.1771" x2="44.1875" y2="4.15625" gradientUnits="userSpaceOnUse">
<stop stop-color="#F8484C"/>
<stop offset="1" stop-color="#F8771E"/>
</linearGradient>
<linearGradient id="paint1_linear_2_515" x1="89.4375" y1="36.3542" x2="89.4375" y2="28.5625" gradientUnits="userSpaceOnUse">
<stop stop-color="#F8484C"/>
<stop offset="1" stop-color="#F8771E"/>
</linearGradient>
<linearGradient id="paint2_linear_2_515" x1="62.5312" y1="13.3333" x2="62.5313" y2="-2.25" gradientUnits="userSpaceOnUse">
<stop stop-color="#F8484C"/>
<stop offset="1" stop-color="#F8771E"/>
</linearGradient>
<linearGradient id="paint3_linear_2_515" x1="81.2265" y1="17.6041" x2="81.2265" y2="3.96919" gradientUnits="userSpaceOnUse">
<stop stop-color="#F8484C"/>
<stop offset="1" stop-color="#F8771E"/>
</linearGradient>
<linearGradient id="paint4_linear_2_515" x1="44.1172" y1="17.6041" x2="44.1172" y2="3.96919" gradientUnits="userSpaceOnUse">
<stop stop-color="#F8484C"/>
<stop offset="1" stop-color="#F8771E"/>
</linearGradient>
</defs>
</svg>
